# xmcd CD database file
#
# Track frame offsets:
#	150
#	15065
#	34001
#	47264
#	60533
#	76546
#	92409
#	102809
#	119850
#	132658
#	146789
#	161611
#	179819
#	192043
#	208573
#	218739
#
# Disc length: 3156 seconds
#
# Revision: 0
# Processed by: cddbd v1.5.2PL0 Copyright (c) Steve Scherf et al.
# Submitted via: CDex 1.70beta2
#
DISCID=d20c5210
DTITLE=Hall, Lauren - Cdn. OVM -  - My Beginning
DYEAR=1900
DGENRE=Country
TTITLE0=Candy Kisses
TTITLE1=The French Song Medley
TTITLE2=Gathering Flowers For The Masters Bouquet
TTITLE3=Sad Movies
TTITLE4=The Hand That Rocks The Cradle
TTITLE5=Family Bible
TTITLE6=Lord Of The Dance
TTITLE7=Right or Wrong
TTITLE8=To Daddy
TTITLE9=Put Your Hand In The Hand
TTITLE10=Coat Of Many Colors
TTITLE11=Help Me Make It Through The Night
TTITLE12=Blanket On The Ground
TTITLE13=Have I Told you lately
TTITLE14=Turn your radio on
TTITLE15=Will The Circle Be Unbroken 
EXTD=
EXTT0=
EXTT1=
EXTT2=
EXTT3=
EXTT4=
EXTT5=
EXTT6=
EXTT7=
EXTT8=
EXTT9=
EXTT10=
EXTT11=
EXTT12=
EXTT13=
EXTT14=
EXTT15=
PLAYORDER=
